<svg xmlns:xlink="http://www.w3.org/1999/xlink" preserveAspectRatio="xMidYMid meet" data-bbox="0.1 0.05 510.86 135.94" viewBox="0.1 0.05 510.86 135.94" xmlns="http://www.w3.org/2000/svg" data-type="color" role="presentation" aria-hidden="true" width="510.86"  height="135.94" >
    <g>
        <path d="M179.14 56.16c3.39-3.62 8.13-6.1 14.91-6.1 16.38 0 22.03 11.75 22.03 29.26v4.52c0 17.51-5.65 29.26-22.03 29.26-8.13 0-13.44-3.5-16.83-8.47l-1.24 6.89h-18.75l1.13-16.95V21.14h20.79v35.02zm0 34.46c1.13 1.69 4.18 4.63 8.7 4.63 5.65 0 7.57-4.07 7.57-11.41v-4.52c0-7.34-1.92-11.41-7.57-11.41-4.52 0-7.57 2.94-8.7 4.63v18.08z" fill="#000000" data-color="1"></path>
        <path d="M221.73 83.84v-4.52c0-17.51 9.04-29.26 28.81-29.26s28.81 11.75 28.81 29.26v4.52c0 17.51-9.04 29.26-28.81 29.26s-28.81-11.75-28.81-29.26zm36.94 0v-4.52c0-7.34-2.49-11.41-8.13-11.41-5.65 0-8.13 4.07-8.13 11.41v4.52c0 7.34 2.49 11.41 8.13 11.41 5.65 0 8.13-4.06 8.13-11.41z" fill="#000000" data-color="1"></path>
        <path d="M287.6 51.64h20.79v60.44c0 17.51-9.6 23.61-23.95 23.61-5.65 0-9.04-1.02-10.06-1.58v-16.95c.56.23 3.39.68 5.2.68 4.75 0 8.02-1.24 8.02-8.02V51.64zm21.12-6.78h-21.47V23.4h21.47v21.46z" fill="#000000" data-color="1"></path>
        <path d="M353.35 105.87c-4.18 4.41-10.17 7.23-18.08 7.23-14.12 0-18.64-8.93-18.64-18.53v-1.13c0-12.99 8.7-17.4 22.03-19.43l12.65-2.03c-.23-4.29-1.92-6.33-6.44-6.33-5.08 0-6.44 2.94-6.44 5.76h-19.55V70.4c0-10.85 6.21-20.34 26.55-20.34 20.45 0 26.66 8.25 26.66 23.05v21.47l1.13 16.95h-18.75l-1.12-5.66zm-2.03-12.76v-9.15l-8.13 1.24c-4.86.79-5.87 2.94-5.87 5.65v.68c0 2.37 1.58 4.86 5.87 4.86 3.5-.01 6.43-1.7 8.13-3.28z" fill="#000000" data-color="1"></path>
        <path d="M412.67 103.13h1.13c4.41 0 8.36-2.82 8.36-9.6V92.4c0-5.54-2.94-8.36-8.36-8.36h-11.86v-18.3h11.52c5.42 0 8.13-2.82 8.13-8.36v-1.13c0-4.63-3.39-7.8-7.8-7.8h-1.13c-4.41 0-7.8 3.05-7.8 12.65h-21.01v-2.15c0-19.32 9.49-28.81 29.37-28.81 22.48 0 29.37 13.9 29.37 23.61v2.26c0 9.15-4.18 15.14-9.49 18.75 5.54 3.5 10.06 9.6 10.06 18.98V96c0 10.28-7.46 25.42-29.94 25.42-19.88 0-29.94-10.06-29.94-28.24V91.6h21.01c.02 9.05 3.97 11.53 8.38 11.53z" fill="#000000" data-color="1"></path>
        <path d="M489.04 56.3V21.28h20.79v73.44l1.13 16.95h-18.75l-1.36-6.89c-3.39 4.97-8.59 8.47-16.72 8.47-16.38 0-22.03-11.75-22.03-29.26v-4.52c0-17.51 5.65-29.26 22.03-29.26 6.66-.01 11.52 2.48 14.91 6.09zm0 16.39c-1.13-1.69-4.18-4.63-8.7-4.63-5.65 0-7.57 4.07-7.57 11.41v4.52c0 7.34 1.92 11.41 7.57 11.41 4.52 0 7.57-2.94 8.7-4.63V72.69z" fill="#000000" data-color="1"></path>
        <path d="M341.21 23.4v21.47h-21.47V23.4h21.47z" fill="#000000" data-color="1"></path>
        <path d="M373.41 23.3v21.47h-21.47V23.3h21.47z" fill="#000000" data-color="1"></path>
        <path d="M53.86.05l83.84 33.06v78.31l-53.55 24.57L.1 103.89V24.94L53.86.05z" fill="#000000" data-color="1"></path>
        <path fill="#3C52A3" d="M46.48 19.81L26.71 29l16.82 7.02v15.73L14.9 40.37v47.04l31.58-14.44V19.81z" data-color="2"></path>
        <path fill="#FAEC26" d="M26.96 98.05l26.95-12.42 56.59 21.68-19.57 9.09v-13.75l-14.9-5.72v19.98L26.96 98.05z" data-color="3"></path>
        <path fill="#EE3E32" d="M61.08 18.84v53.91l61.63 23.42V49.8L90.94 64.27v16.72l-14.73-5.45v-11.1l-12.36-4.91V43.89l19.63 7.86 28.15-13.09-50.55-19.82z" data-color="4"></path>
    </g>
</svg>