<svg xmlns:xlink="http://www.w3.org/1999/xlink" preserveAspectRatio="xMidYMid meet" data-bbox="0.1 0.05 510.86 135.94" viewBox="0.1 0.05 135.86 135.94" xmlns="http://www.w3.org/2000/svg" data-type="color" role="presentation" aria-hidden="true" width="135.86"  height="135.94" >
    <g>
        <path d="M53.86.05l83.84 33.06v78.31l-53.55 24.57L.1 103.89V24.94L53.86.05z" fill="#000000" data-color="1"></path>
        <path fill="#3C52A3" d="M46.48 19.81L26.71 29l16.82 7.02v15.73L14.9 40.37v47.04l31.58-14.44V19.81z" data-color="2"></path>
        <path fill="#FAEC26" d="M26.96 98.05l26.95-12.42 56.59 21.68-19.57 9.09v-13.75l-14.9-5.72v19.98L26.96 98.05z" data-color="3"></path>
        <path fill="#EE3E32" d="M61.08 18.84v53.91l61.63 23.42V49.8L90.94 64.27v16.72l-14.73-5.45v-11.1l-12.36-4.91V43.89l19.63 7.86 28.15-13.09-50.55-19.82z" data-color="4"></path>
    </g>
</svg>